<?xml version="1.0" encoding="utf-8"?>
<!-- Generator: Adobe Illustrator 25.3.0, SVG Export Plug-In . SVG Version: 6.00 Build 0)  -->
<svg version="1.1" id="Layer_1" xmlns="http://www.w3.org/2000/svg" xmlns:xlink="http://www.w3.org/1999/xlink" x="0px" y="0px"
	 viewBox="0 0 358.1 358.1" style="enable-background:new 0 0 358.1 358.1;" xml:space="preserve">
<style type="text/css">
	.st0{fill:#6C0092;}
	.st1{fill:#FFFFFF;}
	.st2{fill-rule:evenodd;clip-rule:evenodd;fill:#6C0092;}
	.st3{fill:#660096;}
</style>
<g>
	<path class="st0" d="M131.3,240.1L131.3,240.1c0,0.1-0.1,0.1-0.1,0.1l-3.1-0.1c0,0,0,0,0,0c-2.9,1.7-5.9,3.1-9,4.3
		c-5.5,2-10.7,2.9-15.4,3.1c-0.4,0-0.9,0.1-1.3,0.1l-0.6,0.7l-1.1,1.4l-1.2-1.4l-0.6-0.7l1.2,0c-0.8,0-1.6,0-2.4-0.1h0
		c-6.4-0.4-11.3-1.8-13.6-2.5c-3.8-1.1-7.4-2.6-10.8-4.5h0c-1.1,0.1-2.3,0.2-3.5,0.3c0,0,0,0,0,0c-0.3-0.3-0.6-0.6-1-0.9
		c0-0.7,0-1.4,0-2.1c0-1.4,0-2.8,0-4.2c0-1.9,0-3.7,0-5.5c1.2-0.3,2.5-0.6,3.8-0.9c17.6-3.9,35.9-3.9,53.6,0c0.1,0,0.1,0,0.2,0.1
		c0.7,0.1,1.3,0.3,2,0.5c1,0.2,2,0.5,3,0.8c0,1.3,0,2.7,0,4c0,1.9,0,3.7,0,5.5C131.3,238.8,131.3,239.4,131.3,240.1z"/>
	<path class="st0" d="M68.5,271.7H68c0-0.2,0-0.4,0-0.5L68.5,271.7z"/>
	<path class="st0" d="M128.1,240.1c-2.9,1.7-5.9,3.1-9,4.3c-5.5,2-10.7,2.9-15.4,3.1c-0.4,0-0.9,0.1-1.3,0.1l-0.6,0.7l-1.1,1.4
		l-1.2-1.4l-0.6-0.7l1.2,0c-0.8,0-1.6,0-2.4-0.1h0c-6.4-0.4-11.3-1.8-13.6-2.5c-3.8-1.1-7.4-2.6-10.8-4.5c5.8-0.5,11.1-0.8,15.5-1
		h0.1l1.1,0h0.9c7-0.2,11.3-0.1,11.3-0.1l8.2,0.2h1l1,0h0.1C117.7,239.7,123,239.9,128.1,240.1z"/>
	<path class="st1" d="M68.5,271.7H68c0-0.2,0-0.4,0-0.5L68.5,271.7z"/>
	<path class="st1" d="M131.3,228.5c0,1.3,0,2.7,0,4c0,1.9,0,3.7,0,5.5c0,0.7,0,1.4,0,2.1v0c0,0,0,0.1,0,0.1h-0.1l-3.1-0.1
		c0,0,0,0,0,0c-2.9,1.7-5.9,3.1-9,4.3c-5.5,2-10.7,2.9-15.4,3.1c-0.4,0-0.9,0.1-1.3,0.1l-0.6,0.7l-1.1,1.4l-1.2-1.4l-0.6-0.7l1.2,0
		c-0.8,0-1.6,0-2.4-0.1h0c-6.4-0.4-11.3-1.8-13.6-2.5c-3.8-1.1-7.4-2.6-10.8-4.5h0c-1.1,0.1-2.3,0.2-3.5,0.3c0,0,0,0,0,0l-1,0.1
		c0-0.3,0-0.7,0-1c0-0.7,0-1.4,0-2.1c0-1.4,0-2.8,0-4.2c0-1.9,0-3.7,0-5.5c0-2,0-4.1,0-6.1c-0.1-8.9-0.4-17.6-0.7-26h2.8
		c1.1,1.2,2.3,2.2,3.7,3c3,1.7,12.3,4.5,17.5,1.7c5.2-2.8,5.1-2,5.1-2h7.2c0,0,0.5-0.6,5.1,2c5.1,2.9,14.5,0.1,17.5-1.7
		c1.4-0.8,2.6-1.8,3.7-3h1.8c-0.5,9-0.8,18.4-1,28.1C131.3,225.6,131.3,227,131.3,228.5z"/>
	<path class="st0" d="M68.5,271.7H68c0-0.2,0-0.4,0-0.5L68.5,271.7z"/>
	<path class="st0" d="M73.2,240.5L73.2,240.5c-1.2,0.1-2.3,0.2-3.5,0.3c0,0,0,0,0,0l-1,0.1c0-0.3,0-0.7,0-1c0-0.7,0-1.4,0-2.1
		C70.2,238.8,71.7,239.7,73.2,240.5z"/>
	<path class="st0" d="M102.4,247.5l-0.6,0.7l-1.1,1.4l-1.2-1.4l-0.6-0.7l1.2,0h0.1c0.6,0,1.3,0,1.9,0H102.4z"/>
	<path class="st0" d="M131.3,240.1L131.3,240.1c0,0,0,0.1,0,0.1h-0.1l-3.1-0.1c1.1-0.7,2.2-1.3,3.2-2.1
		C131.3,238.8,131.3,239.4,131.3,240.1z"/>
	<path class="st0" d="M102.4,247.5l-0.6,0.7l-1.1,1.4l-1.2-1.4l-0.6-0.7l1.2,0c-0.8,0-1.6,0-2.4-0.1l3.6,0.1h0l0.8,0H102.4z"/>
	<path class="st0" d="M103.6,247.5c-0.4,0-0.9,0.1-1.3,0.1l-0.6,0.7l-1.1,1.4l-1.2-1.4l-0.6-0.7l1.2,0h0.1l1.1,0h0L103.6,247.5z"/>
	<polygon class="st0" points="101.8,248.2 100.7,249.7 99.5,248.2 	"/>
	<path class="st2" d="M60.3,172.3c0.3,1.6,0.6,3.2,1,4.8c-0.3,0-0.5,0-0.8,0c-0.2,0-0.3,0-0.5,0c-0.4,0-0.9-0.1-1.3-0.2
		c-5.2-1.1-9.2-7.1-9.2-14.2c0-4.4,1.5-8.4,3.9-11c1.7-1.9,4-3.2,6.4-3.4c0.2,0,0.5,0,0.7,0c0.8,0,1.5,0.1,2.2,0.3
		c-1,1.5-1.9,3-2.8,4.6c-0.2,0.4-0.5,0.9-0.7,1.3c-0.1,1.4-0.1,2.8-0.1,4.2C59.1,163.3,59.5,167.9,60.3,172.3z"/>
	<path class="st2" d="M60.3,172.3c-3.9-0.1-7.1-4.4-7.1-9.6c0-2.1,0.5-4.1,1.4-5.7c1.1-2,2.8-3.4,4.7-3.8c0.2,0,0.4-0.1,0.6-0.1
		c-0.2,0.4-0.5,0.9-0.7,1.3c-0.1,1.4-0.1,2.8-0.1,4.2C59.1,163.3,59.5,167.9,60.3,172.3z"/>
	<path class="st0" d="M151.8,162.7c0,7.2-4,13.1-9.2,14.2c-0.4,0.1-0.9,0.2-1.3,0.2c-0.2,0-0.3,0-0.5,0c-0.3,0-0.5,0-0.8,0
		c0.4-1.6,0.7-3.2,1-4.8c0.8-4.4,1.2-8.9,1.2-13.6c0-1.8-0.1-3.6-0.2-5.4c-0.1-1.2-0.2-2.3-0.3-3.5c-0.1-0.5-0.2-1-0.4-1.4
		c0,0,0.1,0,0.2,0c0.6,0,1.2,0.2,1.7,0.3C148.1,150.1,151.8,155.8,151.8,162.7z"/>
	<path class="st2" d="M148.1,162.7c0,5.2-3.2,9.5-7.1,9.6c0.8-4.4,1.2-8.9,1.2-13.6c0-1.8-0.1-3.6-0.2-5.4
		C145.4,154,148.1,158,148.1,162.7z"/>
	<path class="st1" d="M135.3,189.3c0.4-0.7,0.9-1.4,1.3-2.1c-1.3,3.2-2.9,6.1-4.6,8.9c-7.6,11.9-18.8,19.5-31.3,19.5
		c-12.5,0-23.7-7.5-31.3-19.5c-1.7-2.7-3.3-5.7-4.6-8.8c0.4,0.7,0.8,1.4,1.3,2.1c1.4,2.4,2.9,4.8,4.8,6.7c1.1,1.2,2.3,2.2,3.7,3
		c3,1.7,12.3,4.5,17.5,1.7c5.2-2.8,5.1-2,5.1-2h7.2c0,0,0.5-0.6,5.1,2c5.1,2.9,14.5,0.1,17.5-1.7c1.4-0.8,2.6-1.8,3.7-3
		C132.4,194,133.9,191.7,135.3,189.3z"/>
	<path class="st1" d="M141.7,149.7c-0.1-0.5-0.2-1-0.4-1.4c-1-4.2-2-8.4-3.1-12.6c-0.9-0.3-1.8-0.5-2.8-0.7c0,0.1,0,0.2,0,0.4
		c-0.1-0.2-0.2-0.3-0.3-0.5c-10.7-2.7-21.7-4.2-32.7-4.4c-8.1,4.9-17.1,8.2-26.4,9.3c1.8-1.9,3.2-4.1,4-6.6
		c-6.8,3.5-12.8,8.9-17.3,15.4c-1,1.5-1.9,3-2.8,4.6c-0.2,0.4-0.5,0.9-0.7,1.3c0-0.4,0-0.8,0.1-1.2c0.1-1.7,0.3-3.3,0.5-4.9
		c0.6-4.7,1.7-9.2,3.1-13.4c6.6-19.6,21-33.2,37.7-33.2c15,0,28.2,10.9,35.5,27.3c0.4,0.9,0.8,1.9,1.2,2.8c0.5,1.2,0.9,2.5,1.3,3.8
		c1.3,4,2.2,8.1,2.8,12.5C141.5,148.8,141.6,149.2,141.7,149.7z"/>
	<path class="st2" d="M148.5,124.7c-0.2,4.6-0.8,9.1-1.9,13.5c-0.8,3.5-2,7-3.4,10.4c-0.4,0.9-0.8,1.8-1.2,2.6
		c-0.1-0.5-0.2-1-0.4-1.5c-0.1-0.5-0.2-1-0.4-1.4c-1-4.2-2-8.4-3.1-12.6c-0.3-1.2-0.6-2.5-0.9-3.7c-0.3-1.4-0.7-2.8-1-4.2
		c0,0.5-0.1,0.9-0.2,1.3c-0.2,1.9-0.5,3.9-0.7,5.8c0,0.1,0,0.2,0,0.4c-0.1-0.2-0.2-0.3-0.3-0.5c-4.7-6.5-8-13.8-11.2-21.2
		c-0.3-0.8-0.6-1.5-0.9-2.2c-5.6,7.7-12.7,14.1-20.6,19c-8.1,4.9-17.1,8.2-26.4,9.3c1.8-1.9,3.2-4.1,4-6.6
		c-6.8,3.5-12.8,8.9-17.3,15.4c-1,1.5-1.9,3-2.8,4.6c-0.2,0.4-0.5,0.9-0.7,1.3c-1.3,2.5-2.3,5.1-3.1,7.9c-0.5-1.8-1-3.5-1.4-5.3
		c-0.5-1.8-0.9-3.5-1.2-5.3c-0.9-4.4-1.6-8.8-2-13.3c-0.6-5.4-0.8-10.8-0.6-16.2c-0.8,2.5-1.5,5.1-2.3,7.6c0,0,0,0.1,0,0.1
		c-0.4-4.3,0.2-8.7,1.6-12.8c1.8-5,4.7-9.6,8.4-13.3c6.7-6.6,15.6-10.4,24.7-12L76,91c8.2-5.2,18.5-5.9,27.8-3.4
		c6.7,1.8,13,5.2,18.8,9.3c4.7,0.6,9.2,1.9,13.5,4c4.5,2.4,8.4,5.9,10.5,10.5c0.2,0.5,0.4,0.9,0.6,1.4c0.9,2.5,1.3,5.2,1.4,8
		C148.5,122.1,148.5,123.4,148.5,124.7z"/>
	<path class="st0" d="M141,211.1l-0.5-1.8c-0.7,4.2-2.7,8.2-5.7,11.2v-2.1c-1.1,2-2.1,4-3.4,5.8c-0.9,1.3-1.8,2.5-3,3.6
		c-0.6,0.6-1.3,1.2-2.1,1.7c0-0.7,0.1-1.5,0.1-2.2c0-0.2,0-0.3,0-0.5c-0.1,0.1-0.2,0.3-0.2,0.4c-2,3.3-4.7,5.7-8.4,8.3v-1.3
		c-1.4,2.1-3.2,3.9-5.3,5.4c-0.3,0.2-0.7,0.4-1,0.6c-0.1-0.2-0.1-0.5,0-0.7c0-0.3,0.1-0.6,0-0.9c-0.3,0.3-0.6,0.6-1,0.9
		c-3.1,2.2-9.7,2-9.7,2s-6.8,0.2-9.8-2.1c-0.3-0.2-0.6-0.5-0.8-0.8c-0.1,0.3-0.1,0.5,0,0.8c0,0.3,0.1,0.5,0,0.8
		c-0.4-0.2-0.8-0.5-1.1-0.7c-2-1.4-3.8-3.2-5.2-5.3v1.3c-3.9-2.6-6.6-5.2-8.6-8.7c0,0.9,0.1,1.8,0.1,2.6c-1-0.7-1.9-1.4-2.6-2.2
		c-1.6-1.6-2.7-3.3-3.8-5.2c-0.7-1.2-1.4-2.5-2.1-3.7v2.1c-3.1-3-5.1-6.9-5.7-11.2l-0.5,1.8c-3.2-5.7-3.1-21.8-1.6-34.2
		c0.2-1.4,0.3-2.7,0.5-3.9c0.1,1.4,0.4,2.8,0.8,4.1c1,3.5,2.8,6.9,4.7,10.1c0.4,0.7,0.8,1.4,1.3,2.1c1.4,2.4,2.9,4.8,4.8,6.7
		c1.1,1.2,2.3,2.2,3.7,3c3,1.7,12.3,4.5,17.5,1.7c5.2-2.8,5.1-2,5.1-2h7.2c0,0,0.5-0.6,5.1,2c5.1,2.9,14.5,0.1,17.5-1.7
		c1.4-0.8,2.6-1.8,3.7-3c1.9-2,3.3-4.4,4.8-6.7c0.4-0.7,0.9-1.4,1.3-2.1c1.9-3.2,3.7-6.5,4.7-10.1c0.4-1.3,0.6-2.7,0.8-4.1
		c0.2,1.2,0.4,2.6,0.6,3.9C144,189.3,144.1,205.5,141,211.1z"/>
	<path class="st3" d="M149.6,136.8v2.5c-1-0.4-2-0.7-3-1c-2.6-0.9-5.3-1.7-7.9-2.4c-0.1,0-0.3-0.1-0.5-0.1c-0.9-0.3-1.8-0.5-2.8-0.7
		c-0.1,0-0.2-0.1-0.4-0.1c-10.7-2.7-21.7-4.2-32.7-4.4c-13.2-0.3-26.5,1.2-39.4,4.5c-3.9,1-7.7,2.1-11.5,3.4c-0.9,0.3-1.9,0.6-2.8,1
		c-0.1-1.3-0.3-4.8-0.1-9.5c0.2-3.7,0.6-8.1,1.6-12.7c1.9-8.7,5.9-17.8,14-23.5c4.7-3.3,10.1-4.9,14.4-6.2
		c10.3-3.1,21.2-3.8,31.8-2.1c11.4,1.8,22.3,3.5,29.8,12.3c3.8,4.5,5.7,9.7,7,15.1c0.6,2.6,1,5.3,1.4,8c0.1,0.5,0.2,1,0.2,1.5
		C149.3,127.1,149.6,132,149.6,136.8z"/>
	<path class="st0" d="M16.8,254.8c2.8,6,6,11.9,9.4,17.5L16.8,254.8z M179.1,0C80.2,0,0,80.2,0,179.1c0,27.1,6,52.8,16.8,75.8
		c1.4-0.8,2.8-1.5,4.3-2.2C-4.5,197.9,0,132.8,34.6,81.6c12.5-18.5,28.5-34.5,47.1-47.1c28.8-19.4,62.7-29.8,97.4-29.8
		c34.7,0,68.7,10.3,97.4,29.8C295,47.1,311,63.1,323.5,81.6c31.6,46.8,37.4,103.4,20.7,153c0.9,2.3,1.8,4.5,2.7,6.8
		c7.2-19.4,11.2-40.4,11.2-62.4C358.1,80.2,278,0,179.1,0z"/>
	<path class="st0" d="M344.2,234.7c-4.2-10.7-8.5-22.3-12.1-35c-3-10.4-9-31.5-12.2-51.5c-0.5-3.6-1.3-7.2-2.4-10.7
		c-1.9-6-5.6-18.1-16.2-27.8c-4.1-3.8-16.7-14-35.2-13.5c-2.4,0.1-18.6,0.7-31.5,12.7c0,0-10.6,9.7-15.8,27
		c-0.7,2.4-1.6,5.4-1.6,5.4c-0.9,3.1-1.4,5.4-1.7,6.3c-6.9,27.5-10.3,41.2-12.3,49.3c-4.7,19.8-11.4,36.6-17.5,52.8
		c-7.6-3.3-16.7-5.5-26.8-7h0l0,0L139.5,231l0,0c-2.7-0.9-5.5-1.8-8.2-2.5c0,1.3,0,2.7,0,4c0,1.9,0,3.7,0,5.5c0,0.7,0,1.4,0,2.1v0
		c0,0,0,0.1,0,0.1h-0.1l-3.1-0.1c0,0,0,0,0,0c-2.9,1.7-5.9,3.1-9,4.3c-5.5,2-10.7,2.9-15.4,3.1c-0.4,0-0.9,0.1-1.3,0.1l-0.6,0.7
		l-1.1,1.4l-1.2-1.4l-0.6-0.7l1.2,0c-0.8,0-1.6,0-2.4-0.1h0c-6.4-0.4-11.3-1.8-13.6-2.5c-3.8-1.1-7.4-2.6-10.8-4.5h0
		c-1.1,0.1-2.3,0.2-3.5,0.3c0,0,0,0,0,0l-1,0.1c0-0.3,0-0.7,0-1c0-0.7,0-1.4,0-2.1c0-1.4,0-2.8,0-4.2c0-1.9,0-3.7,0-5.5
		c-3,0.8-5.9,1.6-8.9,2.6v0l-17.5,14.7l0,0c-7.5,1.8-14.8,4.2-21.3,7.2c-1.5,0.7-2.9,1.4-4.3,2.2l9.4,17.5
		c31.5,51.4,88.1,85.8,152.9,85.8c51.8,0,98.5-22,131.2-57.2c15.8-17,28.4-37.2,36.7-59.4C346.1,239.2,345.2,237,344.2,234.7z
		 M68,271.7c0-0.2,0-0.4,0-0.5l0.5,0.5H68z M304.6,167.1C304.6,167.1,304.6,167.1,304.6,167.1c-2.5,1.5-5,2.6-7.7,3.5
		c-2,0.7-4.2,1.2-6.3,1.5c-6.8,0.9-9.7-1.2-18.7-1.8c-2.5-0.2-4.9-0.2-7.4-0.1c-10,0.3-17,2.1-22,1.3c-1.8-0.3-3.6-0.7-5.3-1.2
		c-1.4-0.4-2.3-0.7-2.3-0.7c-1.7-0.7-3.4-1.5-5-2.5h0c-6.1-2.4-6.9-5.2-0.2-8.6c0,0,0,0,0,0c23.7-12.2,51.9-11.8,75.1,1.1v0
		C309.5,162.4,308.6,164.9,304.6,167.1z"/>
	<path class="st1" d="M229.9,167.1L229.9,167.1l0-1C229.8,166.5,229.8,166.8,229.9,167.1z"/>
</g>
</svg>
