<svg xmlns="http://www.w3.org/2000/svg" viewBox="0 0 358.12 358.12"><defs><style>.cls-1{fill:#fff;}.cls-2{fill:#6c0092;}.cls-3{fill:#610089;}.cls-4{fill:none;}</style></defs><g id="Layer_2" data-name="Layer 2"><g id="Layer_1-2" data-name="Layer 1"><circle class="cls-1" cx="179.06" cy="179.06" r="179.06"/><path class="cls-1" d="M232.24,147.33c-.67,15.24-1.87,42.53-21.59,64.41-6.13,6.8-17.56,19.48-34,19.63-17.44.16-29.68-13.87-36.32-21.55-19.19-22.18-20.81-48.74-21.47-62.49-1-20.36-2.19-46.4,16.57-64.3C151,68.18,171.25,67.6,175.56,67.57s25.13.3,40.86,15.46C234.33,100.3,233.22,125.09,232.24,147.33Z"/><path class="cls-2" d="M274.3,193.25c-4.51-15.82-13.66-47.91-18.48-78.35a110.91,110.91,0,0,0-3.69-16.19c-2.81-9.07-8.52-27.51-24.66-42.33C221.21,50.63,202,35,173.92,35.77c-3.67.1-28.25,1.12-48,19.32,0,0-16.07,14.78-24,41-1.1,3.61-2.39,8.29-2.39,8.29-1.3,4.67-2.2,8.23-2.55,9.64-10.49,41.77-15.74,62.66-18.68,75.07-9.6,40.59-24.76,72.64-35.87,105.64a178.93,178.93,0,0,0,15.3,16c1.63,1.51,3.29,3,5,4.42a176.21,176.21,0,0,0,15.7,12q3.78,2.6,7.72,5c1.72,1,3.47,2.06,5.22,3.05q5.84,3.29,11.91,6.14c1.72.8,3.44,1.58,5.19,2.33,2.3,1,4.63,1.94,7,2.83,1,.38,2,.76,3,1.12a179.86,179.86,0,0,0,125.78-1.66c1.31-.51,2.61-1,3.91-1.59a177.56,177.56,0,0,0,40-23.21c1.85-1.41,3.66-2.86,5.45-4.35a181.24,181.24,0,0,0,19.69-19.1C302.51,268.82,286.21,235,274.3,193.25ZM220.71,149a50.79,50.79,0,0,1-9.58,2.26c-10.26,1.32-14.76-1.8-28.5-2.72a109.22,109.22,0,0,0-11.26-.13c-15.2.42-25.86,3.13-33.41,2a66.85,66.85,0,0,1-8.08-1.79c-2.17-.62-3.58-1.12-3.58-1.12a47.32,47.32,0,0,1-7.59-3.82l-.06,0c-9.34-3.65-10.46-7.93-.24-13.09A120.82,120.82,0,0,1,233.94,133l-1.24-.69c7.17,4.23,5.81,8-.34,11.38A57.85,57.85,0,0,1,220.71,149Z"/><path class="cls-3" d="M104.12,184.33C96.33,230.19,90,279.55,86.06,332.11q-3.93-2.4-7.72-5A1310.85,1310.85,0,0,1,104.12,184.33Z"/><path class="cls-3" d="M221,68.45c5.79,17,11.36,35.33,16.46,54.81a799.25,799.25,0,0,1,16.7,80.81A298.12,298.12,0,0,0,242.34,122,297.84,297.84,0,0,0,221,68.45Z"/><path class="cls-3" d="M128.4,71.39c-5.79,17-11.36,35.33-16.45,54.8A797.25,797.25,0,0,0,95.24,207,296.9,296.9,0,0,1,128.4,71.39Z"/><path class="cls-3" d="M127.44,189.31c-.34,2.42-.69,5-1.08,7.76-9.75,69.93-16,115.78-18,146.56q-2.61-1.12-5.18-2.33c2-20.75,6-48.72,12-87.1,3.21-20.38,7.43-47.22,10.85-68.14,3.11-19,5.56-33.15,6-33.08C132.22,153,132.28,154.37,127.44,189.31Z"/><path class="cls-3" d="M248.08,344.33c-1.3.55-2.6,1.08-3.92,1.59-3.31-35.69-8.33-87.9-15.86-148.85-.61-4.94-1.16-9.34-1.66-13.25-3.47-27.23-4.33-30.8-4.06-30.84.43-.08,2.59,9.55,5.53,25.93A1564.17,1564.17,0,0,1,248.08,344.33Z"/><path class="cls-3" d="M118.39,347.58c-1-.36-2-.74-3-1.12-.28-17.59,3.28-30.18,3.94-30.11S116.46,329.54,118.39,347.58Z"/><path class="cls-3" d="M79.16,238.26c-6,23.58-11.71,49.24-16.52,76.84-1.69-1.43-3.35-2.91-5-4.42A476.11,476.11,0,0,1,79.16,238.26Z"/><path class="cls-3" d="M293.51,316.77q-2.67,2.24-5.44,4.35c-5.34-33.9-12-65.08-19.25-93.27a476.14,476.14,0,0,1,22.67,78.09Q292.57,311.4,293.51,316.77Z"/><path class="cls-4" d="M358.12,179.06a178.39,178.39,0,0,1-44.91,118.61,180.43,180.43,0,0,1-19.7,19.1q-2.67,2.24-5.44,4.35a177.56,177.56,0,0,1-40,23.21c-1.3.55-2.6,1.08-3.92,1.59a179.83,179.83,0,0,1-125.77,1.66c-1-.36-2-.74-3-1.12-2.36-.89-4.69-1.84-7-2.83q-2.61-1.12-5.18-2.33-6.07-2.85-11.91-6.14-2.64-1.49-5.22-3.05-3.93-2.4-7.72-5a176.21,176.21,0,0,1-15.7-12c-1.69-1.43-3.35-2.91-5-4.42A179.06,179.06,0,1,1,358.12,179.06Z"/><path class="cls-2" d="M179.06,4.82a173.5,173.5,0,0,1,97.42,29.75,175.28,175.28,0,0,1,47.07,47.07A174.25,174.25,0,0,1,55.85,302.27a175.72,175.72,0,0,1-21.28-25.79,174.06,174.06,0,0,1,0-194.84A175.28,175.28,0,0,1,81.64,34.57,173.5,173.5,0,0,1,179.06,4.82m0-4.82A179.06,179.06,0,1,0,358.12,179.06,179.06,179.06,0,0,0,179.06,0Z"/><path class="cls-1" d="M220.71,149a50.79,50.79,0,0,1-9.58,2.26c-10.26,1.32-14.76-1.8-28.5-2.72a109.22,109.22,0,0,0-11.26-.13c-15.2.42-25.86,3.13-33.41,2a66.85,66.85,0,0,1-8.08-1.79c-2.17-.62-3.58-1.12-3.58-1.12a47.32,47.32,0,0,1-7.59-3.82l-.06,0-.24-13.09A120.82,120.82,0,0,1,233.94,133l-1.24-.69"/></g></g></svg>