<svg xmlns="http://www.w3.org/2000/svg" viewBox="0 0 358.12 358.12"><defs><style>.cls-1{fill:#fff;}.cls-2,.cls-3{fill:#6c0092;}.cls-3{fill-rule:evenodd;}.cls-4{fill:#660096;}</style></defs><g id="Layer_2" data-name="Layer 2"><g id="Layer_1-2" data-name="Layer 1"><circle class="cls-1" cx="179.06" cy="179.06" r="179.06"/><path class="cls-2" d="M118.57,255.68c5.58,6.13,11.77,12.45,18.63,18.79A306.21,306.21,0,0,0,180.76,308a265.3,265.3,0,0,0,46.84-38.43c4.38-4.53,8.43-9,12.17-13.51a187.91,187.91,0,0,0-121.2-.4Z"/><path class="cls-2" d="M320,289.56a179.08,179.08,0,0,1-275.32,7.81c13-8.93,29.86-15.1,47.37-19.36h0a321.86,321.86,0,0,1,40-6.83l1.48-.15c1.79-.2,3.55-.37,5.29-.53,8.81-.83,16.87-1.3,23.62-1.57l1.86-.07,1.17,0c10.69-.35,17.4-.18,17.4-.18l12.62.33,1.35,0,1.7.05c8.06.23,16,.49,23.79.85l4.73.22h.17c14.84.76,29,1.9,42.05,3.8C289.29,276.86,306.69,281.59,320,289.56Z"/><path class="cls-1" d="M228.77,317.88H130.9c.77-18.51,1.21-37.81,1.2-57.83q0-29.7-1.2-57.22h97.87c-1,17.61-1.54,36.16-1.58,55.56C227.15,279.23,227.74,299.09,228.77,317.88Z"/><path class="cls-2" d="M118.58,255.68,92,278l51.52,63.86,74,.59L270,274.35l-30.26-18.28a82.24,82.24,0,0,1-31.1,20.36c-24.84,9-46.4,2.94-53.27.89A90.19,90.19,0,0,1,118.58,255.68Z"/><path class="cls-2" d="M176.11,281.07l-32.45,40.1L92,278q25.82,25.94,51.64,51.85l39.58-48.65Z"/><path class="cls-2" d="M185.15,281.11l32.45,40.1,52.28-47.11L217.6,329.89,178,281.23Z"/><rect class="cls-2" x="176.47" y="282.28" width="9.02" height="75.08"/><path class="cls-3" d="M136.34,152.12c0,12.12-7.5,21.94-16.75,21.94s-16.76-9.82-16.76-21.94,7.5-21.93,16.76-21.93S136.34,140,136.34,152.12Z"/><path class="cls-3" d="M130.73,152.12c0,8.06-5,14.6-11.14,14.6s-11.15-6.54-11.15-14.6,5-14.59,11.15-14.59S130.73,144.06,130.73,152.12Z"/><ellipse class="cls-2" cx="241.6" cy="152.12" rx="16.75" ry="21.94"/><path class="cls-3" d="M252.74,152.12c0,8.06-5,14.6-11.14,14.6s-11.15-6.54-11.15-14.6,5-14.59,11.15-14.59S252.74,144.06,252.74,152.12Z"/><ellipse class="cls-1" cx="180.59" cy="145.95" rx="63.16" ry="86.51"/><path class="cls-3" d="M250.3,74.12c-3.18-7-9.13-12.41-15.91-16a63,63,0,0,0-20.51-6.09c-8.76-6.33-18.28-11.46-28.54-14.22-14.12-3.79-29.81-2.72-42.32,5.2l10.91,1.36c-13.77,2.49-27.31,8.23-37.5,18.32S99.78,87.63,101.2,102.3q1.77-5.88,3.53-11.76a197.59,197.59,0,0,0,8.08,61c5.83-19.13,19.27-35.53,36.36-44.38a26.38,26.38,0,0,1-6.09,10c28-3.38,54.29-19.47,71.47-43,.47,1.14.95,2.27,1.44,3.4,4.92,11.43,10,22.91,17.48,32.9q.69-5.73,1.37-11.44,4.35,17.85,8.69,35.69a104.16,104.16,0,0,0,9.84-40.33C253.64,87.51,253.17,80.4,250.3,74.12Z"/><path class="cls-2" d="M243.47,167.79c-.7,9-5.5,17.09-10.17,24.81-3.42,5.65-7.08,11.53-12.84,14.76-4.62,2.59-18.88,7-26.64,2.51-7-4.05-7.77-3.08-7.77-3.08H175.13s.21-1.2-7.77,3.08-22,.08-26.64-2.51c-5.75-3.23-9.42-9.11-12.83-14.76-4.68-7.72-9.48-15.81-10.18-24.81-3,19.21-3.8,48.45,1.58,58l.79-2.81a30.42,30.42,0,0,0,8.72,17v-3.21c3.51,6.21,6.41,12.36,13,16.91-.06-1.34-.13-2.69-.2-4,3.14,5.26,7.21,9.16,13.12,13.19,0-.65,0-1.31,0-2a30.85,30.85,0,0,0,9.6,9.17c.28-.81-.2-1.55.08-2.37,3.68,4.72,16.23,4.36,16.23,4.36s12.55.36,16.24-4.36c.28.82-.2,1.56.08,2.37a30.91,30.91,0,0,0,9.59-9.17c0,.65,0,1.31,0,2,5.91-4,10-7.93,13.12-13.19-.07,1.34-.13,2.69-.2,4,6.59-4.55,9.49-10.7,13-16.91V240a30.47,30.47,0,0,0,8.71-17l.79,2.81C247.27,216.24,246.53,187,243.47,167.79Z"/><path class="cls-4" d="M101.42,116.61a223.89,223.89,0,0,1,153.6-.09c0-.87,0-2.17,0-3.75a154.7,154.7,0,0,0-1.29-22.12c-2.07-13.51-4.08-26.68-13.15-37.43-11.41-13.5-28-16.07-45.3-18.77a110.08,110.08,0,0,0-48.44,3.26c-6.5,2-14.76,4.44-21.91,9.44C98.2,65.85,100.92,110,101.42,116.61Z"/><path class="cls-2" d="M179.06,4.82a173.5,173.5,0,0,1,97.42,29.75,175.28,175.28,0,0,1,47.07,47.07A174.23,174.23,0,0,1,74.85,318.72a176,176,0,0,1-26.58-24.53A174.06,174.06,0,0,1,34.57,81.64,175.28,175.28,0,0,1,81.64,34.57,173.5,173.5,0,0,1,179.06,4.82m0-4.82A179.07,179.07,0,1,0,358.12,179.06,179.06,179.06,0,0,0,179.06,0Z"/></g></g></svg>