<svg xmlns="http://www.w3.org/2000/svg" viewBox="0 0 447.62 323.29"><defs><style>.cls-1{fill:#6c0092;}</style></defs><g id="Layer_2" data-name="Layer 2"><g id="Layer_1-2" data-name="Layer 1"><polygon class="cls-1" points="365.22 0 325.72 12.48 358.88 38.32 365.22 0"/><polygon class="cls-1" points="415.13 34.24 412.08 75.95 445.11 57.6 415.13 34.24"/><polygon class="cls-1" points="404.67 73.99 407.76 30.76 369.05 46.24 404.67 73.99"/><polygon class="cls-1" points="372.69 1.18 366.37 39.19 402.75 24.59 372.69 1.18"/><path class="cls-1" d="M408.66,86.72l-54.24,29.57q-2.32-2.17-4.8-4.23l52.85-30.17L363,51.14l-19.18,56.41c-1.93-1.42-3.86-2.87-5.84-4.16l18.92-57L321.05,18.47l12,82A119.65,119.65,0,0,0,199.72,109,124.38,124.38,0,0,1,215,124.35,98.19,98.19,0,1,1,215,283c-.84-.61-1.71-1.14-2.54-1.78-.36-.28-.67-.6-1-.89a98.45,98.45,0,0,1-15.19-15.22c-.95-1.19-1.89-2.38-2.78-3.61a98.13,98.13,0,0,1,0-115.41,93.57,93.57,0,0,0-15.22-15.49,119.63,119.63,0,0,0,0,146.35c.89,1.14,1.82,2.27,2.75,3.38a120.74,120.74,0,0,0,15.27,15.23c1,.84,2,1.7,3.08,2.52l.46.34A119.58,119.58,0,0,0,358.14,119.92l82.41-8.36Z"/><polygon class="cls-1" points="415.7 82.58 445.25 105.61 447.62 64.87 415.7 82.58"/><path class="cls-1" d="M177.41,283a98.19,98.19,0,1,1,0-158.61c.84.62,1.71,1.14,2.54,1.78.36.29.67.61,1,.9a98.39,98.39,0,0,1,15.19,15.21c.95,1.19,1.89,2.39,2.78,3.61a98.13,98.13,0,0,1,0,115.44,94.38,94.38,0,0,0,15.24,15.46,119.62,119.62,0,0,0,0-146.34c-.89-1.15-1.82-2.27-2.75-3.39a120,120,0,0,0-15.27-15.22c-1-.85-2-1.71-3.08-2.52l-.45-.34a119.59,119.59,0,1,0,0,189.39A125.29,125.29,0,0,1,177.41,283Z"/></g></g></svg>